<svg xmlns="http://www.w3.org/2000/svg" style="background: transparent; background-color: transparent;" xmlns:xlink="http://www.w3.org/1999/xlink" version="1.1" width="701px" height="101px" viewBox="-0.5 -0.5 701 101" content="&lt;mxfile&gt;&lt;diagram id=&quot;owiSFgnWbEz81R1zP5Jq&quot; name=&quot;ページ1&quot;&gt;5Vhtb6NGEP41SO0Hon2F5WPsS+5a3UlFh3Rpv3FmbaNg42IcO/31nZldbAhOLrm3qKoUwczD7Oy87k4cyOnq8LbJN8sPdWGrQLDiEMg3gRCccQUvRO4dEjHpgEVTFl7oBHws/7HdSo/uysJuB4JtXVdtuRmCs3q9trN2gOVNU++HYvO6Gu66yRd2BHyc5dUY/VQW7dKhRsQn/J0tF8tuZx4l7ssq74S9iu0yL+q9g8g5eRXIaVPXraNWh6mtMHhdXFwErh/5ejSssev2OQuEW3CXVzvvWyCiCpZOtncLtK+9905Hf+/QqMmdbdoSQhHmVblYB/ISpEJ2wYS2kN/JSRDww6paQ6gvD1W5vh1oWbbthtZew99+v7/Yy4u6gR2veZJAsK7dkr6yu9LuJ/VhoIbh5kqhCzrGp9JysKipH5hfrhYDgeUpTx3KvTN9sf0xzScpkagHUt7fZ/kpGAPrrynMJxXRwr8pB4Wdbx9iGywhaJ3BNh8w80yYOHVEouEpMTqSm0wTF7MMI8uUYBnXBiklUng6CpdhATPF40xoWqtN6imFT8EjfKoo4wblOdOpoyJik4gykAmJ2gWoSTgpz6RAJDbvpUQTEp1KhZ/IIBnHpDZOFUNKRs4MibSJM+XNilKlyFhJWiPp6FQZdkINOSZ4ppw1TLxX2APMqFRx3C6mIBAZGY8p0iUicjpTigyC/bBvIZqk2BVZpjn5qnSq8RhjHCuOaSkcnWrNT6ijlQIUbeDkvVYJ0SzTFNYEMiScOFiN9kMGFIU0BAM17hJy56NxdCqp2h0qyVwVQUw1JQAxSb5EGeSfMge5QCTKBEU3BEJKUsEhh4mjyHBcHqecufBTmpHkXHqQx84XUhyJjMckGieppygfHc07NOmhiczoTIT8HIuRqXdcq5S7PFJZcoq1NDqj6EuopMhVtsg05ciwlAwWMengjnwnukYwirx3zfHXoFnLBy30+03Iw+zqJvwt5G8o/I+1JbSt68IRfK5h8Rhtm3y9ndfNarDlFm+UX8C4ach/Hdi2bZv61objU4cNxOYlHOb9z7Ndgyf/tK7q5ozCZ8mOrS/yNg9Xqypcw00+0LFyYfi6teXjK3dbi8epuzYul42dD5YGQj6ZLrfrbHhefzGntOkIXXwD5g53j4rBdSrgHoZxBZjJflm29uMmn+GXPUxMdG+sMLMcyHm9bv0IBL0MPCTdJQ31yCK3Zj7DaqIU975EM2M/z49794cCPyfgXW4PPcgPCW9tvbJtc485GE5efmAznj0VqFAe6l2oRyz389biqPc0kgDhp5LzE4o8M6FAU6tb9/phcZ3PbTQ7G9ciTj7D3f1d4irVqwU2GoeugCnXs+t6bYfxsoeyvQGaXZhYe/5P4jvuDTrFOua+x/xhmxIMtE2HrcHYmz7T04TsSRVxna5HI76td83Mu+Fros2bhW0HRYQOPpmVxlZ5W94Nx/xvCbIaV6+e0pEP76Ju4baY3oYcGLgAWHAlA8MDMyFCBHQv4wJ2FNABlAgKqGAyCS41ESYwl080AvyTsUFwVtW74hmN8RqNEA37QI/7QMRnGoGz79AJ+is7gb+kC44Vf8Fg3n1R1RP3sIWe1Qpi3ArqtVqhu0L+gwfOg2B9MezxOOzJT4py/D86cEany5nEPH7zmlc8ccxLW6F/epjvdnq8tK7luK7jn1TXySNj4N0PHgOfPV5/UzFG8c8aA4E9/bpI33q/0cqrfwE=&lt;/diagram&gt;&lt;/mxfile&gt;"><defs><style xmlns="http://www.w3.org/1999/xhtml" id="MJX-SVG-styles">
mjx-container[jax="SVG"] {
  direction: ltr;
}

mjx-container[jax="SVG"] &gt; svg {
  overflow: visible;
  min-height: 1px;
  min-width: 1px;
}

mjx-container[jax="SVG"] &gt; svg a {
  fill: blue;
  stroke: blue;
}

mjx-container[jax="SVG"][display="true"] {
  display: block;
  text-align: center;
  margin: 1em 0;
}

mjx-container[jax="SVG"][display="true"][width="full"] {
  display: flex;
}

mjx-container[jax="SVG"][justify="left"] {
  text-align: left;
}

mjx-container[jax="SVG"][justify="right"] {
  text-align: right;
}

g[data-mml-node="merror"] &gt; g {
  fill: red;
  stroke: red;
}

g[data-mml-node="merror"] &gt; rect[data-background] {
  fill: yellow;
  stroke: none;
}

g[data-mml-node="mtable"] &gt; line[data-line], svg[data-table] &gt; g &gt; line[data-line] {
  stroke-width: 70px;
  fill: none;
}

g[data-mml-node="mtable"] &gt; rect[data-frame], svg[data-table] &gt; g &gt; rect[data-frame] {
  stroke-width: 70px;
  fill: none;
}

g[data-mml-node="mtable"] &gt; .mjx-dashed, svg[data-table] &gt; g &gt; .mjx-dashed {
  stroke-dasharray: 140;
}

g[data-mml-node="mtable"] &gt; .mjx-dotted, svg[data-table] &gt; g &gt; .mjx-dotted {
  stroke-linecap: round;
  stroke-dasharray: 0,140;
}

g[data-mml-node="mtable"] &gt; g &gt; svg {
  overflow: visible;
}

[jax="SVG"] mjx-tool {
  display: inline-block;
  position: relative;
  width: 0;
  height: 0;
}

[jax="SVG"] mjx-tool &gt; mjx-tip {
  position: absolute;
  top: 0;
  left: 0;
}

mjx-tool &gt; mjx-tip {
  display: inline-block;
  padding: .2em;
  border: 1px solid #888;
  font-size: 70%;
  background-color: #F8F8F8;
  color: black;
  box-shadow: 2px 2px 5px #AAAAAA;
}

g[data-mml-node="maction"][data-toggle] {
  cursor: pointer;
}

mjx-status {
  display: block;
  position: fixed;
  left: 1em;
  bottom: 1em;
  min-width: 25%;
  padding: .2em .4em;
  border: 1px solid #888;
  font-size: 90%;
  background-color: #F8F8F8;
  color: black;
}

foreignObject[data-mjx-xml] {
  font-family: initial;
  line-height: normal;
  overflow: visible;
}

mjx-container[jax="SVG"] path[data-c], mjx-container[jax="SVG"] use[data-c] {
  stroke-width: 3;
}
</style></defs><g><g><ellipse cx="20" cy="50" rx="20" ry="20" fill="#dae8fc" stroke="#6c8ebf" pointer-events="all" style="fill: light-dark(rgb(218, 232, 252), rgb(29, 41, 59)); stroke: light-dark(rgb(108, 142, 191), rgb(92, 121, 163));"/></g><g><g transform="translate(-0.5 -0.5)"><switch><foreignObject style="overflow: visible; text-align: left;" pointer-events="none" width="100%" height="100%" requiredFeatures="http://www.w3.org/TR/SVG11/feature#Extensibility"><div xmlns="http://www.w3.org/1999/xhtml" style="display: flex; align-items: unsafe center; justify-content: unsafe center; width: 38px; height: 1px; padding-top: 50px; margin-left: 1px;"><div style="box-sizing: border-box; font-size: 0; text-align: center; color: #000000; "><div style="display: inline-block; font-size: 18px; font-family: &quot;Helvetica&quot;; color: light-dark(#000000, #ffffff); line-height: 1.2; pointer-events: all; white-space: normal; word-wrap: normal; "><svg xmlns="http://www.w3.org/2000/svg" width="1.294ex" height="1.025ex" role="img" viewBox="0 -442 572 453" xmlns:xlink="http://www.w3.org/1999/xlink" style="vertical-align: -0.025ex;"><defs><path id="MJX-1-TEX-I-1D462" d="M21 287Q21 295 30 318T55 370T99 420T158 442Q204 442 227 417T250 358Q250 340 216 246T182 105Q182 62 196 45T238 27T291 44T328 78L339 95Q341 99 377 247Q407 367 413 387T427 416Q444 431 463 431Q480 431 488 421T496 402L420 84Q419 79 419 68Q419 43 426 35T447 26Q469 29 482 57T512 145Q514 153 532 153Q551 153 551 144Q550 139 549 130T540 98T523 55T498 17T462 -8Q454 -10 438 -10Q372 -10 347 46Q345 45 336 36T318 21T296 6T267 -6T233 -11Q189 -11 155 7Q103 38 103 113Q103 170 138 262T173 379Q173 380 173 381Q173 390 173 393T169 400T158 404H154Q131 404 112 385T82 344T65 302T57 280Q55 278 41 278H27Q21 284 21 287Z"/></defs><g stroke="currentColor" fill="currentColor" stroke-width="0" transform="scale(1,-1)"><g data-mml-node="math"><g data-mml-node="mi"><use data-c="1D462" xlink:href="#MJX-1-TEX-I-1D462"/></g></g></g></svg></div></div></div></foreignObject><text x="20" y="55" fill="light-dark(#000000, #ffffff)" font-family="&quot;Helvetica&quot;" font-size="18px" text-anchor="middle"></text></switch></g></g><g><ellipse cx="350" cy="50" rx="20" ry="20" fill="#ffe6cc" stroke="#d79b00" pointer-events="all" style="fill: light-dark(rgb(255, 230, 204), rgb(54, 33, 10)); stroke: light-dark(rgb(215, 155, 0), rgb(153, 101, 0));"/></g><g><g transform="translate(-0.5 -0.5)"><switch><foreignObject style="overflow: visible; text-align: left;" pointer-events="none" width="100%" height="100%" requiredFeatures="http://www.w3.org/TR/SVG11/feature#Extensibility"><div xmlns="http://www.w3.org/1999/xhtml" style="display: flex; align-items: unsafe center; justify-content: unsafe center; width: 38px; height: 1px; padding-top: 50px; margin-left: 331px;"><div style="box-sizing: border-box; font-size: 0; text-align: center; color: #000000; "><div style="display: inline-block; font-size: 18px; font-family: &quot;Helvetica&quot;; color: light-dark(#000000, #ffffff); line-height: 1.2; pointer-events: all; white-space: normal; word-wrap: normal; "><mjx-container class="MathJax" jax="SVG" display="true"><svg xmlns="http://www.w3.org/2000/svg" width="1.179ex" height="1.595ex" role="img" focusable="false" viewBox="0 -694 521 705" xmlns:xlink="http://www.w3.org/1999/xlink" style="vertical-align: -0.025ex;"><defs><path id="MJX-11-TEX-I-1D458" d="M121 647Q121 657 125 670T137 683Q138 683 209 688T282 694Q294 694 294 686Q294 679 244 477Q194 279 194 272Q213 282 223 291Q247 309 292 354T362 415Q402 442 438 442Q468 442 485 423T503 369Q503 344 496 327T477 302T456 291T438 288Q418 288 406 299T394 328Q394 353 410 369T442 390L458 393Q446 405 434 405H430Q398 402 367 380T294 316T228 255Q230 254 243 252T267 246T293 238T320 224T342 206T359 180T365 147Q365 130 360 106T354 66Q354 26 381 26Q429 26 459 145Q461 153 479 153H483Q499 153 499 144Q499 139 496 130Q455 -11 378 -11Q333 -11 305 15T277 90Q277 108 280 121T283 145Q283 167 269 183T234 206T200 217T182 220H180Q168 178 159 139T145 81T136 44T129 20T122 7T111 -2Q98 -11 83 -11Q66 -11 57 -1T48 16Q48 26 85 176T158 471L195 616Q196 629 188 632T149 637H144Q134 637 131 637T124 640T121 647Z"/></defs><g stroke="currentColor" fill="currentColor" stroke-width="0" transform="scale(1,-1)"><g data-mml-node="math"><g data-mml-node="mi"><use data-c="1D458" xlink:href="#MJX-11-TEX-I-1D458"/></g></g></g></svg></mjx-container></div></div></div></foreignObject><text x="350" y="55" fill="light-dark(#000000, #ffffff)" font-family="&quot;Helvetica&quot;" font-size="18px" text-anchor="middle">$$k$$</text></switch></g></g><g><path d="M 286.25 50 L 323.63 50" fill="none" stroke="#000000" stroke-miterlimit="10" pointer-events="stroke" style="stroke: light-dark(rgb(0, 0, 0), rgb(255, 255, 255));"/><path d="M 328.88 50 L 321.88 53.5 L 323.63 50 L 321.88 46.5 Z" fill="#000000" stroke="#000000" stroke-miterlimit="10" pointer-events="all" style="fill: light-dark(rgb(0, 0, 0), rgb(255, 255, 255)); stroke: light-dark(rgb(0, 0, 0), rgb(255, 255, 255));"/></g><g><path d="M 117.5 25 C 63.5 25 50 50 93.2 55 C 50 66 98.6 90 133.7 80 C 158 100 239 100 266 80 C 320 80 320 60 286.25 50 C 320 30 266 10 218.75 20 C 185 5 131 5 117.5 25 Z" fill="#ffe6cc" stroke="#d79b00" stroke-miterlimit="10" pointer-events="all" style="fill: light-dark(rgb(255, 230, 204), rgb(54, 33, 10)); stroke: light-dark(rgb(215, 155, 0), rgb(153, 101, 0));"/></g><g><g transform="translate(-0.5 -0.5)"><switch><foreignObject style="overflow: visible; text-align: left;" pointer-events="none" width="100%" height="100%" requiredFeatures="http://www.w3.org/TR/SVG11/feature#Extensibility"><div xmlns="http://www.w3.org/1999/xhtml" style="display: flex; align-items: unsafe center; justify-content: unsafe center; width: 268px; height: 1px; padding-top: 50px; margin-left: 51px;"><div style="box-sizing: border-box; font-size: 0; text-align: center; color: #000000; "><div style="display: inline-block; font-size: 12px; font-family: &quot;Helvetica&quot;; color: light-dark(#000000, #ffffff); line-height: 1.2; pointer-events: all; white-space: normal; word-wrap: normal; "><mjx-container class="MathJax" jax="SVG"><svg xmlns="http://www.w3.org/2000/svg" width="11.248ex" height="2.009ex" role="img" focusable="false" viewBox="0 -694 4971.4 888" xmlns:xlink="http://www.w3.org/1999/xlink" style="vertical-align: -0.439ex;"><defs><path id="MJX-12-TEX-N-31" d="M213 578L200 573Q186 568 160 563T102 556H83V602H102Q149 604 189 617T245 641T273 663Q275 666 285 666Q294 666 302 660V361L303 61Q310 54 315 52T339 48T401 46H427V0H416Q395 3 257 3Q121 3 100 0H88V46H114Q136 46 152 46T177 47T193 50T201 52T207 57T213 61V578Z"/><path id="MJX-12-TEX-N-2C" d="M78 35T78 60T94 103T137 121Q165 121 187 96T210 8Q210 -27 201 -60T180 -117T154 -158T130 -185T117 -194Q113 -194 104 -185T95 -172Q95 -168 106 -156T131 -126T157 -76T173 -3V9L172 8Q170 7 167 6T161 3T152 1T140 0Q113 0 96 17Z"/><path id="MJX-12-TEX-N-2026" d="M78 60Q78 84 95 102T138 120Q162 120 180 104T199 61Q199 36 182 18T139 0T96 17T78 60ZM525 60Q525 84 542 102T585 120Q609 120 627 104T646 61Q646 36 629 18T586 0T543 17T525 60ZM972 60Q972 84 989 102T1032 120Q1056 120 1074 104T1093 61Q1093 36 1076 18T1033 0T990 17T972 60Z"/><path id="MJX-12-TEX-I-1D458" d="M121 647Q121 657 125 670T137 683Q138 683 209 688T282 694Q294 694 294 686Q294 679 244 477Q194 279 194 272Q213 282 223 291Q247 309 292 354T362 415Q402 442 438 442Q468 442 485 423T503 369Q503 344 496 327T477 302T456 291T438 288Q418 288 406 299T394 328Q394 353 410 369T442 390L458 393Q446 405 434 405H430Q398 402 367 380T294 316T228 255Q230 254 243 252T267 246T293 238T320 224T342 206T359 180T365 147Q365 130 360 106T354 66Q354 26 381 26Q429 26 459 145Q461 153 479 153H483Q499 153 499 144Q499 139 496 130Q455 -11 378 -11Q333 -11 305 15T277 90Q277 108 280 121T283 145Q283 167 269 183T234 206T200 217T182 220H180Q168 178 159 139T145 81T136 44T129 20T122 7T111 -2Q98 -11 83 -11Q66 -11 57 -1T48 16Q48 26 85 176T158 471L195 616Q196 629 188 632T149 637H144Q134 637 131 637T124 640T121 647Z"/><path id="MJX-12-TEX-N-2212" d="M84 237T84 250T98 270H679Q694 262 694 250T679 230H98Q84 237 84 250Z"/></defs><g stroke="currentColor" fill="currentColor" stroke-width="0" transform="scale(1,-1)"><g data-mml-node="math"><g data-mml-node="mn"><use data-c="31" xlink:href="#MJX-12-TEX-N-31"/></g><g data-mml-node="mo" transform="translate(500,0)"><use data-c="2C" xlink:href="#MJX-12-TEX-N-2C"/></g><g data-mml-node="mo" transform="translate(944.7,0)"><use data-c="2026" xlink:href="#MJX-12-TEX-N-2026"/></g><g data-mml-node="mo" transform="translate(2283.3,0)"><use data-c="2C" xlink:href="#MJX-12-TEX-N-2C"/></g><g data-mml-node="mi" transform="translate(2728,0)"><use data-c="1D458" xlink:href="#MJX-12-TEX-I-1D458"/></g><g data-mml-node="mo" transform="translate(3471.2,0)"><use data-c="2212" xlink:href="#MJX-12-TEX-N-2212"/></g><g data-mml-node="mn" transform="translate(4471.4,0)"><use data-c="31" xlink:href="#MJX-12-TEX-N-31"/></g></g></g></svg></mjx-container> から <mjx-container class="MathJax" jax="SVG"><svg xmlns="http://www.w3.org/2000/svg" width="1.131ex" height="1.557ex" role="img" focusable="false" viewBox="0 -666 500 688" xmlns:xlink="http://www.w3.org/1999/xlink" style="vertical-align: -0.05ex;"><defs><path id="MJX-13-TEX-N-30" d="M96 585Q152 666 249 666Q297 666 345 640T423 548Q460 465 460 320Q460 165 417 83Q397 41 362 16T301 -15T250 -22Q224 -22 198 -16T137 16T82 83Q39 165 39 320Q39 494 96 585ZM321 597Q291 629 250 629Q208 629 178 597Q153 571 145 525T137 333Q137 175 145 125T181 46Q209 16 250 16Q290 16 318 46Q347 76 354 130T362 333Q362 478 354 524T321 597Z"/></defs><g stroke="currentColor" fill="currentColor" stroke-width="0" transform="scale(1,-1)"><g data-mml-node="math"><g data-mml-node="mn"><use data-c="30" xlink:href="#MJX-13-TEX-N-30"/></g></g></g></svg></mjx-container> 個以上</div></div></div></foreignObject><text x="185" y="54" fill="light-dark(#000000, #ffffff)" font-family="&quot;Helvetica&quot;" font-size="12px" text-anchor="middle">\(1,\dots,k-1\) から \(0\) 個以上</text></switch></g></g><g><path d="M 40 50 L 64.42 50" fill="none" stroke="#000000" stroke-miterlimit="10" pointer-events="stroke" style="stroke: light-dark(rgb(0, 0, 0), rgb(255, 255, 255));"/><path d="M 69.67 50 L 62.67 53.5 L 64.42 50 L 62.67 46.5 Z" fill="#000000" stroke="#000000" stroke-miterlimit="10" pointer-events="all" style="fill: light-dark(rgb(0, 0, 0), rgb(255, 255, 255)); stroke: light-dark(rgb(0, 0, 0), rgb(255, 255, 255));"/></g><g><path d="M 606.25 50 L 653.63 50" fill="none" stroke="#000000" stroke-miterlimit="10" pointer-events="stroke" style="stroke: light-dark(rgb(0, 0, 0), rgb(255, 255, 255));"/><path d="M 658.88 50 L 651.88 53.5 L 653.63 50 L 651.88 46.5 Z" fill="#000000" stroke="#000000" stroke-miterlimit="10" pointer-events="all" style="fill: light-dark(rgb(0, 0, 0), rgb(255, 255, 255)); stroke: light-dark(rgb(0, 0, 0), rgb(255, 255, 255));"/></g><g><path d="M 437.5 25 C 383.5 25 370 50 413.2 55 C 370 66 418.6 90 453.7 80 C 478 100 559 100 586 80 C 640 80 640 60 606.25 50 C 640 30 586 10 538.75 20 C 505 5 451 5 437.5 25 Z" fill="#ffe6cc" stroke="#d79b00" stroke-miterlimit="10" pointer-events="all" style="fill: light-dark(rgb(255, 230, 204), rgb(54, 33, 10)); stroke: light-dark(rgb(215, 155, 0), rgb(153, 101, 0));"/></g><g><g transform="translate(-0.5 -0.5)"><switch><foreignObject style="overflow: visible; text-align: left;" pointer-events="none" width="100%" height="100%" requiredFeatures="http://www.w3.org/TR/SVG11/feature#Extensibility"><div xmlns="http://www.w3.org/1999/xhtml" style="display: flex; align-items: unsafe center; justify-content: unsafe center; width: 268px; height: 1px; padding-top: 50px; margin-left: 371px;"><div style="box-sizing: border-box; font-size: 0; text-align: center; color: #000000; "><div style="display: inline-block; font-size: 12px; font-family: &quot;Helvetica&quot;; color: light-dark(#000000, #ffffff); line-height: 1.2; pointer-events: all; white-space: normal; word-wrap: normal; "><mjx-container class="MathJax" jax="SVG"><svg xmlns="http://www.w3.org/2000/svg" width="11.248ex" height="2.009ex" role="img" focusable="false" viewBox="0 -694 4971.4 888" xmlns:xlink="http://www.w3.org/1999/xlink" style="vertical-align: -0.439ex;"><defs><path id="MJX-14-TEX-N-31" d="M213 578L200 573Q186 568 160 563T102 556H83V602H102Q149 604 189 617T245 641T273 663Q275 666 285 666Q294 666 302 660V361L303 61Q310 54 315 52T339 48T401 46H427V0H416Q395 3 257 3Q121 3 100 0H88V46H114Q136 46 152 46T177 47T193 50T201 52T207 57T213 61V578Z"/><path id="MJX-14-TEX-N-2C" d="M78 35T78 60T94 103T137 121Q165 121 187 96T210 8Q210 -27 201 -60T180 -117T154 -158T130 -185T117 -194Q113 -194 104 -185T95 -172Q95 -168 106 -156T131 -126T157 -76T173 -3V9L172 8Q170 7 167 6T161 3T152 1T140 0Q113 0 96 17Z"/><path id="MJX-14-TEX-N-2026" d="M78 60Q78 84 95 102T138 120Q162 120 180 104T199 61Q199 36 182 18T139 0T96 17T78 60ZM525 60Q525 84 542 102T585 120Q609 120 627 104T646 61Q646 36 629 18T586 0T543 17T525 60ZM972 60Q972 84 989 102T1032 120Q1056 120 1074 104T1093 61Q1093 36 1076 18T1033 0T990 17T972 60Z"/><path id="MJX-14-TEX-I-1D458" d="M121 647Q121 657 125 670T137 683Q138 683 209 688T282 694Q294 694 294 686Q294 679 244 477Q194 279 194 272Q213 282 223 291Q247 309 292 354T362 415Q402 442 438 442Q468 442 485 423T503 369Q503 344 496 327T477 302T456 291T438 288Q418 288 406 299T394 328Q394 353 410 369T442 390L458 393Q446 405 434 405H430Q398 402 367 380T294 316T228 255Q230 254 243 252T267 246T293 238T320 224T342 206T359 180T365 147Q365 130 360 106T354 66Q354 26 381 26Q429 26 459 145Q461 153 479 153H483Q499 153 499 144Q499 139 496 130Q455 -11 378 -11Q333 -11 305 15T277 90Q277 108 280 121T283 145Q283 167 269 183T234 206T200 217T182 220H180Q168 178 159 139T145 81T136 44T129 20T122 7T111 -2Q98 -11 83 -11Q66 -11 57 -1T48 16Q48 26 85 176T158 471L195 616Q196 629 188 632T149 637H144Q134 637 131 637T124 640T121 647Z"/><path id="MJX-14-TEX-N-2212" d="M84 237T84 250T98 270H679Q694 262 694 250T679 230H98Q84 237 84 250Z"/></defs><g stroke="currentColor" fill="currentColor" stroke-width="0" transform="scale(1,-1)"><g data-mml-node="math"><g data-mml-node="mn"><use data-c="31" xlink:href="#MJX-14-TEX-N-31"/></g><g data-mml-node="mo" transform="translate(500,0)"><use data-c="2C" xlink:href="#MJX-14-TEX-N-2C"/></g><g data-mml-node="mo" transform="translate(944.7,0)"><use data-c="2026" xlink:href="#MJX-14-TEX-N-2026"/></g><g data-mml-node="mo" transform="translate(2283.3,0)"><use data-c="2C" xlink:href="#MJX-14-TEX-N-2C"/></g><g data-mml-node="mi" transform="translate(2728,0)"><use data-c="1D458" xlink:href="#MJX-14-TEX-I-1D458"/></g><g data-mml-node="mo" transform="translate(3471.2,0)"><use data-c="2212" xlink:href="#MJX-14-TEX-N-2212"/></g><g data-mml-node="mn" transform="translate(4471.4,0)"><use data-c="31" xlink:href="#MJX-14-TEX-N-31"/></g></g></g></svg></mjx-container> から <mjx-container class="MathJax" jax="SVG"><svg xmlns="http://www.w3.org/2000/svg" width="1.131ex" height="1.557ex" role="img" focusable="false" viewBox="0 -666 500 688" xmlns:xlink="http://www.w3.org/1999/xlink" style="vertical-align: -0.05ex;"><defs><path id="MJX-15-TEX-N-30" d="M96 585Q152 666 249 666Q297 666 345 640T423 548Q460 465 460 320Q460 165 417 83Q397 41 362 16T301 -15T250 -22Q224 -22 198 -16T137 16T82 83Q39 165 39 320Q39 494 96 585ZM321 597Q291 629 250 629Q208 629 178 597Q153 571 145 525T137 333Q137 175 145 125T181 46Q209 16 250 16Q290 16 318 46Q347 76 354 130T362 333Q362 478 354 524T321 597Z"/></defs><g stroke="currentColor" fill="currentColor" stroke-width="0" transform="scale(1,-1)"><g data-mml-node="math"><g data-mml-node="mn"><use data-c="30" xlink:href="#MJX-15-TEX-N-30"/></g></g></g></svg></mjx-container> 個以上</div></div></div></foreignObject><text x="505" y="54" fill="light-dark(#000000, #ffffff)" font-family="&quot;Helvetica&quot;" font-size="12px" text-anchor="middle">\(1,\dots,k-1\) から \(0\) 個以上</text></switch></g></g><g><path d="M 370 50 L 384.69 50" fill="none" stroke="#000000" stroke-miterlimit="10" pointer-events="stroke" style="stroke: light-dark(rgb(0, 0, 0), rgb(255, 255, 255));"/><path d="M 389.94 50 L 382.94 53.5 L 384.69 50 L 382.94 46.5 Z" fill="#000000" stroke="#000000" stroke-miterlimit="10" pointer-events="all" style="fill: light-dark(rgb(0, 0, 0), rgb(255, 255, 255)); stroke: light-dark(rgb(0, 0, 0), rgb(255, 255, 255));"/></g><g><ellipse cx="680" cy="50" rx="20" ry="20" fill="#dae8fc" stroke="#6c8ebf" pointer-events="all" style="fill: light-dark(rgb(218, 232, 252), rgb(29, 41, 59)); stroke: light-dark(rgb(108, 142, 191), rgb(92, 121, 163));"/></g><g><g transform="translate(-0.5 -0.5)"><switch><foreignObject style="overflow: visible; text-align: left;" pointer-events="none" width="100%" height="100%" requiredFeatures="http://www.w3.org/TR/SVG11/feature#Extensibility"><div xmlns="http://www.w3.org/1999/xhtml" style="display: flex; align-items: unsafe center; justify-content: unsafe center; width: 38px; height: 1px; padding-top: 50px; margin-left: 661px;"><div style="box-sizing: border-box; font-size: 0; text-align: center; color: #000000; "><div style="display: inline-block; font-size: 18px; font-family: &quot;Helvetica&quot;; color: light-dark(#000000, #ffffff); line-height: 1.2; pointer-events: all; white-space: normal; word-wrap: normal; "><mjx-container class="MathJax" jax="SVG" display="true"><svg xmlns="http://www.w3.org/2000/svg" width="1.097ex" height="1.027ex" role="img" focusable="false" viewBox="0 -443 485 454" xmlns:xlink="http://www.w3.org/1999/xlink" style="vertical-align: -0.025ex;"><defs><path id="MJX-16-TEX-I-1D463" d="M173 380Q173 405 154 405Q130 405 104 376T61 287Q60 286 59 284T58 281T56 279T53 278T49 278T41 278H27Q21 284 21 287Q21 294 29 316T53 368T97 419T160 441Q202 441 225 417T249 361Q249 344 246 335Q246 329 231 291T200 202T182 113Q182 86 187 69Q200 26 250 26Q287 26 319 60T369 139T398 222T409 277Q409 300 401 317T383 343T365 361T357 383Q357 405 376 424T417 443Q436 443 451 425T467 367Q467 340 455 284T418 159T347 40T241 -11Q177 -11 139 22Q102 54 102 117Q102 148 110 181T151 298Q173 362 173 380Z"/></defs><g stroke="currentColor" fill="currentColor" stroke-width="0" transform="scale(1,-1)"><g data-mml-node="math"><g data-mml-node="mi"><use data-c="1D463" xlink:href="#MJX-16-TEX-I-1D463"/></g></g></g></svg></mjx-container></div></div></div></foreignObject><text x="680" y="55" fill="light-dark(#000000, #ffffff)" font-family="&quot;Helvetica&quot;" font-size="18px" text-anchor="middle">$$v$$</text></switch></g></g></g><switch><g requiredFeatures="http://www.w3.org/TR/SVG11/feature#Extensibility"/><a transform="translate(0,-5)" xlink:href="https://www.drawio.com/doc/faq/svg-export-text-problems" target="_blank"><text text-anchor="middle" font-size="10px" x="50%" y="100%">Text is not SVG - cannot display</text></a></switch></svg>